<svg width="256" height="256" viewBox="0 0 256 256" fill="none" xmlns="http://www.w3.org/2000/svg">
<g clip-path="url(#clip0)">
<rect width="256" height="256" rx="10" fill="#FADA4A"/>
<rect width="512" height="512" fill="#F8D949"/>
<ellipse cx="129" cy="185.25" rx="73" ry="32.25" fill="#E8BA40"/>
<path d="M99.6314 190.81C106.856 194.113 135.588 207.248 149.75 207L139 174C127.667 172.167 133.25 166.5 126 168.5C117.311 170.897 116 160.75 93.75 174C89 176.829 90.75 186.75 99.5 190.75L99.6314 190.81Z" fill="#A82717" stroke="black" stroke-width="2"/>
<circle cx="87.75" cy="170.25" r="4.75" fill="#636E79" stroke="black" stroke-width="2" stroke-linecap="round" stroke-linejoin="round"/>
<circle cx="89.25" cy="195.75" r="4.75" fill="#636E79" stroke="black" stroke-width="2" stroke-linecap="round" stroke-linejoin="round"/>
<rect x="79.8799" y="168.799" width="13.1844" height="77.8991" rx="6.5922" transform="rotate(-68.1957 79.8799 168.799)" fill="#3F454B"/>
<path d="M82.8493 162.127C83.5025 163.721 84.7754 165.058 86.5005 165.748L146.585 189.785C149.949 191.131 153.763 189.51 155.134 186.165C155.76 187.694 155.817 189.458 155.155 191.113C153.802 194.494 149.966 196.138 146.585 194.785L86.5005 170.748C83.1202 169.396 81.4762 165.559 82.8285 162.179C82.8354 162.162 82.8423 162.145 82.8493 162.127Z" fill="#282C31"/>
<rect x="81.1798" y="168.242" width="11.1844" height="75.8991" rx="5.5922" transform="rotate(-68.1957 81.1798 168.242)" stroke="black" stroke-width="2" stroke-linecap="round" stroke-linejoin="round"/>
<rect width="13.1844" height="77.8991" rx="6.5922" transform="matrix(-0.371437 -0.928458 -0.928458 0.371437 157.103 170.299)" fill="#3F454B"/>
<path d="M154.634 164.127C153.981 165.721 152.708 167.058 150.983 167.748L90.8977 191.785C87.5346 193.131 83.7198 191.51 82.3493 188.165C81.7226 189.694 81.6663 191.458 82.3285 193.113C83.6808 196.494 87.5174 198.138 90.8977 196.785L150.983 172.748C154.363 171.396 156.007 167.559 154.655 164.179C154.648 164.162 154.641 164.145 154.634 164.127Z" fill="#282C31"/>
<rect x="-1.2999" y="-0.557021" width="11.1844" height="75.8991" rx="5.5922" transform="matrix(-0.371437 -0.928458 -0.928458 0.371437 154.803 168.742)" stroke="black" stroke-width="2" stroke-linecap="round" stroke-linejoin="round"/>
<rect x="112" y="145.5" width="16.5" height="38" rx="8.25" fill="#3F454B" stroke="black" stroke-width="2" stroke-linecap="round" stroke-linejoin="round"/>
<rect x="112" y="136.5" width="16.5" height="38" rx="8.25" fill="#636E79" stroke="black" stroke-width="2" stroke-linecap="round" stroke-linejoin="round"/>
<path d="M65.5 93.7836C65.5 76.0907 77.4103 60.6145 94.5133 56.0839L130.208 46.6285C134.649 45.452 139 48.8007 139 53.3951V127.5C139 131.366 135.866 134.5 132 134.5H72.5C68.634 134.5 65.5 131.366 65.5 127.5V93.7836Z" fill="#6B7682" stroke="black" stroke-width="2"/>
<path d="M71 91.1269C71 77.0633 80.4672 64.7617 94.0619 61.1605L135.708 50.1285C140.149 48.952 144.5 52.3007 144.5 56.8951V131C144.5 134.866 141.366 138 137.5 138H78C74.134 138 71 134.866 71 131V91.1269Z" fill="#3F454B" stroke="black" stroke-width="2"/>
<path d="M153.5 138C153.5 143.526 149.284 148.761 141.948 152.674C134.654 156.564 124.51 159 113.25 159C101.99 159 91.8457 156.564 84.5524 152.674C77.2162 148.761 73 143.526 73 138C73 132.474 77.2162 127.239 84.5524 123.326C91.8457 119.436 101.99 117 113.25 117C124.51 117 134.654 119.436 141.948 123.326C149.284 127.239 153.5 132.474 153.5 138Z" fill="#3F454B" stroke="black" stroke-width="2"/>
<path d="M153.5 131C153.5 136.526 149.284 141.761 141.948 145.674C134.654 149.564 124.51 152 113.25 152C101.99 152 91.8457 149.564 84.5524 145.674C77.2162 141.761 73 136.526 73 131C73 125.474 77.2162 120.239 84.5524 116.326C91.8457 112.436 101.99 110 113.25 110C124.51 110 134.654 112.436 141.948 116.326C149.284 120.239 153.5 125.474 153.5 131Z" fill="#636E79" stroke="black" stroke-width="2"/>
<path d="M166.606 89.5325C174.404 92.1584 181.125 95.4253 185.686 98.5614C187.972 100.134 189.667 101.64 190.691 102.977C191.74 104.348 191.926 105.322 191.711 105.96C191.496 106.597 190.759 107.261 189.094 107.718C187.47 108.164 185.21 108.338 182.438 108.207C176.909 107.945 169.581 106.481 161.783 103.856C153.985 101.23 147.264 97.9628 142.703 94.8267C140.417 93.2546 138.722 91.7485 137.699 90.4112C136.649 89.04 136.464 88.0658 136.678 87.4284C136.893 86.791 137.63 86.1275 139.295 85.6703C140.919 85.2244 143.18 85.0503 145.951 85.1813C151.48 85.4429 158.808 86.9067 166.606 89.5325Z" fill="#3F454B" stroke="black" stroke-width="2"/>
<path d="M192.659 106.279C194.167 101.8 182.646 93.8784 166.925 88.5848C151.458 83.3764 137.688 82.6531 135.813 86.8972C141.224 85.7761 151.863 87.7009 163.34 92.2363C176.42 97.4055 186.387 104.306 188.059 108.965C190.559 108.544 192.196 107.654 192.659 106.279Z" fill="#6B7682"/>
<path d="M166.606 89.5325C174.404 92.1584 181.125 95.4253 185.686 98.5614C187.972 100.134 189.667 101.64 190.691 102.977C191.74 104.348 191.926 105.322 191.711 105.96C191.496 106.597 190.759 107.261 189.094 107.718C187.47 108.164 185.21 108.338 182.438 108.207C176.909 107.945 169.581 106.481 161.783 103.856C153.985 101.23 147.264 97.9628 142.703 94.8267C140.417 93.2546 138.722 91.7485 137.699 90.4112C136.649 89.04 136.464 88.0658 136.678 87.4284C136.893 86.791 137.63 86.1275 139.295 85.6703C140.919 85.2244 143.18 85.0503 145.951 85.1813C151.48 85.4429 158.808 86.9067 166.606 89.5325Z" stroke="black" stroke-width="2"/>
<path d="M80.0898 81.3231C80.0562 81.6399 80.0263 81.9491 80 82.25C80.8333 85 87.85 90.5 109.25 90.5C130.184 90.5 145.967 84.4393 151.637 81.2111L151.75 81.25C153 80.9167 156.5 79.75 159.25 81.75C162 83.75 161.694 84.9552 162.972 88.8526C164.25 92.75 164.5 94 167.25 96.75C170 99.5 178 103.75 179.5 108C181 112.25 180.373 115.089 180.373 115.089C180.373 115.089 179.5 119.25 181.25 121.75C183 124.25 189.75 125 191.5 131C193.25 137 191.987 146.059 191.987 146.059C191.987 146.059 199.5 153.25 200.25 159.75C201.25 163.75 202.75 182.25 187.75 195C172.75 207.75 126.75 213.25 135.75 196.5C139.888 188.798 129.637 186.458 125 178.25C119.553 168.607 118.916 153.526 115 151.5C106 146.845 92.25 141.25 81.25 141.25C72.45 141.25 70.5833 137.917 70.75 136.25V100.25C70.75 90.05 76.25 84 79 82.25L80.0898 81.3231Z" fill="#DB3B27"/>
<path d="M89.9253 117.085C105.646 122.378 117.167 130.3 115.659 134.779C114.151 139.258 100.184 138.597 84.464 133.303C68.7438 128.01 88.4172 121.563 89.9253 117.085Z" fill="#CC3522"/>
<path d="M176.024 103.587C177.645 105.015 178.973 106.507 179.5 108C181 112.25 180.373 115.089 180.373 115.089C180.373 115.089 179.5 119.25 181.25 121.75C181.876 122.644 183.142 123.314 184.589 124.081C187.189 125.458 190.376 127.146 191.5 131C193.25 137 191.987 146.059 191.987 146.059C191.987 146.059 199.5 153.25 200.25 159.75C201.25 163.75 202.75 182.25 187.75 195C179.446 202.058 161.641 206.895 148.927 206.964L144.75 206.25C150.333 205.333 163.8 201.45 173 193.25C184.5 183 184.495 171.702 183.5 162C182.379 151.067 180.137 140.429 178.197 131.22C175.373 117.812 173.186 107.434 176.024 103.587Z" fill="#CC3522"/>
<path d="M71.9929 92.2529C85.5773 104.333 111.686 102.742 127.75 95.75C138.314 91.1515 148.009 85.2851 154.316 80.6825C153.382 80.7977 152.573 81.0224 152.025 81.1744C151.924 81.2024 151.832 81.228 151.75 81.25L151.637 81.2111C145.967 84.4393 130.184 90.5 109.25 90.5C87.85 90.5 80.8333 85 80 82.25C80.0263 81.949 80.0562 81.6399 80.0898 81.323L79 82.25C77.068 83.4794 73.7789 86.831 71.9929 92.2529Z" fill="#FB5A46"/>
<path d="M80.0898 81.3231C80.0562 81.6399 80.0263 81.9491 80 82.25C80.8333 85 87.85 90.5 109.25 90.5C130.184 90.5 145.967 84.4393 151.637 81.2111L151.75 81.25C153 80.9167 156.5 79.75 159.25 81.75C162 83.75 161.694 84.9552 162.972 88.8526C164.25 92.75 164.5 94 167.25 96.75C170 99.5 178 103.75 179.5 108C181 112.25 180.373 115.089 180.373 115.089C180.373 115.089 179.5 119.25 181.25 121.75C183 124.25 189.75 125 191.5 131C193.25 137 191 143.75 191.987 146.059C192.975 148.368 199.5 153.25 200.25 159.75C201.25 163.75 202.75 182.25 187.75 195C172.75 207.75 126.75 213.25 135.75 196.5C139.888 188.798 129.637 186.458 125 178.25C119.553 168.607 118.916 153.526 115 151.5C106 146.845 92.25 141.25 81.25 141.25C72.45 141.25 70.5833 137.917 70.75 136.25V100.25C70.75 90.05 76.25 84 79 82.25L80.0898 81.3231Z" stroke="black" stroke-width="2"/>
<path d="M174.5 125.25L165.25 114.5L152.5 121.25L172.25 144.5C176 142.583 184.5 138.2 188.5 136C193.5 133.25 194.473 127.963 192.5 125.25C190.5 122.5 183.25 124 179.5 125.25C177.026 126.075 175.75 126.75 174.5 125.25Z" fill="#DB3B27"/>
<path d="M165.25 114.5L174.5 125.25C175.75 126.75 177.026 126.075 179.5 125.25C183.25 124 190.5 122.5 192.5 125.25C194.473 127.963 193.5 133.25 188.5 136C184.5 138.2 177 142.25 177 142.25" stroke="black" stroke-width="2" stroke-linecap="round" stroke-linejoin="round"/>
<path d="M142.5 138.75L133.25 128L120.5 134.75L140.25 158C144 156.083 152.5 151.7 156.5 149.5C161.5 146.75 162.473 141.463 160.5 138.75C158.5 136 151.25 137.5 147.5 138.75C145.026 139.575 143.75 140.25 142.5 138.75Z" fill="#DB3B27"/>
<path d="M133.25 128L142.5 138.75C143.75 140.25 145.026 139.575 147.5 138.75C151.25 137.5 158.5 136 160.5 138.75C162.473 141.463 161.5 146.75 156.5 149.5C152.5 151.7 145 155.75 145 155.75" stroke="black" stroke-width="2" stroke-linecap="round" stroke-linejoin="round"/>
<path d="M102.5 43.25C86.8443 47.7819 80.75 71.0833 79.75 82.5C80.5833 85.25 87.6 90.75 109 90.75C130.4 90.75 146.417 84.4167 151.75 81.25L154 64.75C154 64.75 158.5 61.5 156.75 54C155.25 47.5726 148.75 45.25 144.75 45C143.417 43.0833 141 39.25 134 39.25C129.1 39.25 119.75 45.75 119.75 45.75C119.75 45.75 112 40.5 102.5 43.25Z" fill="#468635"/>
<path d="M80.5 82.75C82.6666 74.6667 89.7728 58.419 98.5 53.5C109.654 47.2132 112.582 44.0521 113.291 43.0826C110.332 42.3631 106.577 42.0697 102.5 43.25C87.1907 47.6816 81.0244 70.0613 79.8239 81.725L80.5 82.75Z" fill="#5DA750"/>
<path d="M102.5 43.25C86.8443 47.7819 80.75 71.0833 79.75 82.5C80.5833 85.25 87.6 90.75 109 90.75C130.4 90.75 146.417 84.4167 151.75 81.25L154 64.75C154 64.75 158.5 61.5 156.75 54C155.25 47.5726 148.75 45.25 144.75 45C143.417 43.0833 141 39.25 134 39.25C129.1 39.25 119.75 45.75 119.75 45.75C119.75 45.75 112 40.5 102.5 43.25Z" stroke="black" stroke-width="2"/>
<path d="M129.5 72.5C120.1 72.5 110.928 71.7785 107.5 70.75C102.5 69.25 100 71.4 100 74C100 78.25 105.75 80.5 119 81C132.25 81.5 143.25 79.5 149.75 77.75C156.25 76 158 66.5 152.5 66.5C146.25 66.5 141.25 72.5 129.5 72.5Z" fill="#DB3B27" stroke="black" stroke-width="2"/>
<path d="M155.5 68.5C154.75 70.3333 152.25 73.75 144 75.5C134.833 77.4445 117.25 77.75 105.5 74.5" stroke="black" stroke-width="2" stroke-linecap="round" stroke-linejoin="round"/>
<path d="M119 54.75C112 55.35 106.75 61.6667 105 64.75C105 64.75 109.25 68.25 115.5 68.25C125.9 68.25 132 62.5 132 62.5C132 62.5 135.75 64.8163 143.75 64C153.55 63 156.667 57.9167 157 55.5C155.5 53.8333 150.95 50.5 144.75 50.5C138.55 50.5 133.667 55.6667 132 58.25C130.583 56.8333 126 54.15 119 54.75Z" fill="white"/>
<path d="M105 64.75L104.13 64.2564L103.715 64.9875L104.364 65.5219L105 64.75ZM119 54.75L119.085 55.7463L119 54.75ZM132 58.25L131.293 58.9571L132.169 59.833L132.84 58.7921L132 58.25ZM157 55.5L157.991 55.6366L158.054 55.1764L157.743 54.831L157 55.5ZM143.75 64L143.852 64.9948L143.75 64ZM132 62.5L132.526 61.6492L131.873 61.2459L131.314 61.7723L132 62.5ZM105.87 65.2436C106.691 63.7971 108.367 61.5402 110.678 59.5816C112.989 57.6224 115.862 56.0226 119.085 55.7463L118.915 53.7537C115.138 54.0774 111.886 55.9359 109.385 58.0559C106.883 60.1765 105.059 62.6195 104.13 64.2564L105.87 65.2436ZM119.085 55.7463C125.809 55.17 130.097 57.7611 131.293 58.9571L132.707 57.5429C131.07 55.9055 126.191 53.13 118.915 53.7537L119.085 55.7463ZM132.84 58.7921C133.612 57.596 135.167 55.7505 137.266 54.213C139.364 52.6763 141.931 51.5 144.75 51.5V49.5C141.369 49.5 138.395 50.907 136.084 52.5995C133.775 54.2912 132.055 56.3206 131.16 57.7079L132.84 58.7921ZM144.75 51.5C150.609 51.5 154.904 54.6659 156.257 56.169L157.743 54.831C156.096 53.0007 151.291 49.5 144.75 49.5V51.5ZM156.009 55.3634C155.756 57.2033 153.122 62.0385 143.648 63.0052L143.852 64.9948C153.978 63.9615 157.578 58.63 157.991 55.6366L156.009 55.3634ZM143.648 63.0052C139.762 63.4018 136.939 63.0345 135.114 62.5851C134.2 62.3602 133.533 62.1139 133.105 61.9301C132.891 61.8382 132.736 61.7619 132.64 61.7116C132.592 61.6865 132.558 61.6678 132.539 61.657C132.53 61.6516 132.524 61.6481 132.522 61.6468C132.52 61.6461 132.52 61.6459 132.521 61.6463C132.521 61.6465 132.522 61.6469 132.523 61.6474C132.523 61.6476 132.523 61.6479 132.524 61.6482C132.524 61.6483 132.525 61.6486 132.525 61.6487C132.525 61.6489 132.526 61.6492 132 62.5C131.474 63.3508 131.475 63.3511 131.475 63.3514C131.476 63.3515 131.476 63.3518 131.477 63.352C131.477 63.3525 131.478 63.353 131.479 63.3535C131.481 63.3545 131.483 63.3557 131.485 63.357C131.489 63.3596 131.494 63.3628 131.5 63.3665C131.513 63.3738 131.529 63.3833 131.549 63.3946C131.589 63.4173 131.644 63.4476 131.714 63.4842C131.854 63.5574 132.054 63.6557 132.317 63.7682C132.842 63.9933 133.612 64.275 134.636 64.5271C136.686 65.0318 139.738 65.4145 143.852 64.9948L143.648 63.0052ZM132 62.5C131.314 61.7723 131.314 61.7721 131.315 61.7718C131.315 61.7718 131.315 61.7715 131.315 61.7714C131.315 61.7712 131.315 61.7711 131.315 61.7711C131.315 61.771 131.315 61.7713 131.315 61.7719C131.313 61.7731 131.31 61.7757 131.306 61.7796C131.298 61.7874 131.283 61.8004 131.263 61.8183C131.223 61.8541 131.16 61.9094 131.074 61.9815C130.903 62.1256 130.641 62.3366 130.293 62.5923C129.596 63.1039 128.554 63.7929 127.196 64.4838C124.482 65.8652 120.512 67.25 115.5 67.25V69.25C120.888 69.25 125.168 67.7598 128.104 66.2662C129.571 65.5196 130.704 64.7711 131.476 64.2046C131.862 63.9212 132.158 63.683 132.361 63.5127C132.462 63.4275 132.54 63.3593 132.595 63.3109C132.622 63.2866 132.643 63.2674 132.658 63.2534C132.666 63.2464 132.672 63.2407 132.677 63.2364C132.679 63.2343 132.681 63.2325 132.682 63.231C132.683 63.2303 132.684 63.2296 132.684 63.2291C132.685 63.2288 132.685 63.2284 132.685 63.2283C132.686 63.228 132.686 63.2277 132 62.5ZM115.5 67.25C112.561 67.25 110.084 66.4267 108.335 65.5966C107.462 65.1823 106.776 64.7691 106.313 64.4628C106.082 64.3098 105.907 64.1839 105.792 64.0986C105.735 64.0559 105.693 64.0234 105.667 64.0027C105.654 63.9924 105.644 63.985 105.639 63.9809C105.637 63.9788 105.635 63.9775 105.634 63.977C105.634 63.9768 105.634 63.9767 105.634 63.9769C105.634 63.977 105.635 63.9771 105.635 63.9773C105.635 63.9774 105.635 63.9776 105.635 63.9777C105.635 63.9779 105.636 63.9781 105 64.75C104.364 65.5219 104.365 65.5222 104.365 65.5224C104.365 65.5225 104.365 65.5228 104.366 65.523C104.366 65.5234 104.367 65.5239 104.367 65.5244C104.369 65.5254 104.37 65.5266 104.372 65.5281C104.375 65.531 104.38 65.5347 104.386 65.5392C104.397 65.5483 104.412 65.5606 104.432 65.5759C104.471 65.6065 104.526 65.6492 104.597 65.7022C104.74 65.8082 104.945 65.9558 105.21 66.1309C105.739 66.4809 106.507 66.9427 107.478 67.4034C109.416 68.3233 112.189 69.25 115.5 69.25V67.25Z" fill="black"/>
<ellipse cx="120.25" cy="62.5" rx="6.75" ry="6" fill="black"/>
<circle cx="122" cy="62" r="2.5" fill="white"/>
<ellipse cx="116.886" cy="60.028" rx="1" ry="1.25" transform="rotate(21.3179 116.886 60.028)" fill="white"/>
<ellipse cx="145.25" cy="58" rx="6.75" ry="6" fill="black"/>
<circle cx="147" cy="57.5" r="2.5" fill="white"/>
<ellipse cx="141.886" cy="55.528" rx="1" ry="1.25" transform="rotate(21.3179 141.886 55.528)" fill="white"/>
<path d="M100 53C101.417 51.0833 104.55 48 109.75 48C110.577 48 111.419 48.0695 112.25 48.1864M141.25 46C141.25 46 139 44 133.75 44C129.75 44 123.5 48.75 120.75 50.75C120.75 50.75 119.471 50.1434 117.575 49.5" stroke="black" stroke-width="2" stroke-linecap="round" stroke-linejoin="round"/>
<path d="M69.5 122.5C69.5 120.291 71.2909 118.5 73.5 118.5H83C85.2091 118.5 87 120.291 87 122.5V151.247C87 154.035 84.2203 155.968 81.6073 154.997L72.1073 151.468C70.5399 150.886 69.5 149.391 69.5 147.719V122.5Z" fill="#3F454B"/>
<rect x="71.5" y="122" width="2.5" height="29" fill="#6B7682"/>
<path d="M70.5 122.5C70.5 120.843 71.8431 119.5 73.5 119.5H83C84.6569 119.5 86 120.843 86 122.5V151.247C86 153.338 83.9152 154.787 81.9554 154.06L72.4554 150.531L72.1073 151.468L72.4554 150.531C71.2799 150.094 70.5 148.973 70.5 147.719V122.5Z" stroke="black" stroke-width="2" stroke-linecap="round" stroke-linejoin="round"/>
<path d="M86.6062 111.533C94.4042 114.158 101.125 117.425 105.686 120.561C107.972 122.134 109.667 123.64 110.691 124.977C111.74 126.348 111.926 127.322 111.711 127.96C111.496 128.597 110.759 129.261 109.094 129.718C107.47 130.164 105.21 130.338 102.438 130.207C96.9092 129.945 89.5811 128.481 81.7831 125.856C73.9851 123.23 67.2642 119.963 62.7033 116.827C60.417 115.255 58.7222 113.749 57.6987 112.411C56.6493 111.04 56.4637 110.066 56.6784 109.428C56.893 108.791 57.6301 108.127 59.2952 107.67C60.9191 107.224 63.1797 107.05 65.9512 107.181C71.4801 107.443 78.8082 108.907 86.6062 111.533Z" fill="#3F454B" stroke="black" stroke-width="2"/>
<path d="M112.659 128.279C114.167 123.8 102.646 115.878 86.9253 110.585C71.4579 105.376 57.6885 104.653 55.813 108.897C61.2243 107.776 71.8633 109.701 83.3395 114.236C96.4196 119.406 106.387 126.306 108.059 130.965C110.559 130.544 112.196 129.654 112.659 128.279Z" fill="#6B7682"/>
<path d="M86.6062 111.533C94.4042 114.158 101.125 117.425 105.686 120.561C107.972 122.134 109.667 123.64 110.691 124.977C111.74 126.348 111.926 127.322 111.711 127.96C111.496 128.597 110.759 129.261 109.094 129.718C107.47 130.164 105.21 130.338 102.438 130.207C96.9092 129.945 89.5811 128.481 81.7831 125.856C73.9851 123.23 67.2642 119.963 62.7033 116.827C60.417 115.255 58.7222 113.749 57.6987 112.411C56.6493 111.04 56.4637 110.066 56.6784 109.428C56.893 108.791 57.6301 108.127 59.2952 107.67C60.9191 107.224 63.1797 107.05 65.9512 107.181C71.4801 107.443 78.8082 108.907 86.6062 111.533Z" stroke="black" stroke-width="2"/>
<path d="M164.75 93.5C165.37 94.5813 167.542 98.5976 163.822 100.683C160.448 102.574 160.75 99.875 158.5 101C156.25 102.125 157.75 104 155.851 104.622C154.198 105.163 153.61 103.537 151.75 104C149.89 104.463 151.334 106.476 149.208 107.171C147.082 107.866 147.141 105.805 144.75 106.5C142.359 107.195 143.894 109.256 141.503 109.951C139.111 110.646 138.846 108.561 136.72 109.256C134.594 109.951 135.657 112.268 133 112.5" stroke="black" stroke-width="2" stroke-linecap="round" stroke-linejoin="round"/>
<path d="M163.193 89.0129C163.193 90.0129 164.193 90.7629 162.48 91.779C160.984 92.6663 160.172 90.8444 158.347 91.43C156.522 92.0156 158.096 93.9277 156.021 94.7621C153.946 95.5965 153.868 93.5361 151.528 94.3881C149.188 95.2401 150.857 97.1949 148.517 98.0469C146.177 98.8989 145.773 96.8357 143.698 97.6701C141.623 98.5045 142.837 100.746 140.201 101.153" stroke="black" stroke-width="2" stroke-linecap="round" stroke-linejoin="round"/>
<path d="M200.193 158.513C200.193 159.513 201.193 160.263 199.48 161.279C197.984 162.166 197.172 160.344 195.347 160.93C193.522 161.516 195.096 163.428 193.021 164.262C190.946 165.097 190.868 163.036 188.528 163.888C186.188 164.74 187.857 166.695 185.517 167.547C183.177 168.399 182.773 166.336 180.698 167.17C178.623 168.004 179.837 170.246 177.201 170.653" stroke="black" stroke-width="2" stroke-linecap="round" stroke-linejoin="round"/>
<path d="M200.726 168.314C198.652 169.149 198.574 167.088 196.234 167.94C193.894 168.792 195.562 170.747 193.222 171.599C190.882 172.451 190.479 170.388 188.404 171.222C186.329 172.057 187.543 174.298 184.907 174.705" stroke="black" stroke-width="2" stroke-linecap="round" stroke-linejoin="round"/>
<path d="M160.726 182.814C158.652 183.649 158.574 181.588 156.234 182.44C153.894 183.292 155.562 185.247 153.222 186.099C150.882 186.951 150.479 184.888 148.404 185.722C146.329 186.557 147.543 188.798 144.907 189.205" stroke="black" stroke-width="2" stroke-linecap="round" stroke-linejoin="round"/>
</g>
<defs>
<clipPath id="clip0">
<rect width="256" height="256" rx="10" fill="white"/>
</clipPath>
</defs>
</svg>
