<svg width="312" height="186" viewBox="0 0 312 186" fill="none" xmlns="http://www.w3.org/2000/svg">
<path d="M94.966 19.5914C33.9422 37.2562 5.89786 141.65 2 186.151C5.24821 196.87 36.8879 204.74 120.302 204.74C203.716 204.74 267.908 198.494 288.696 186.151L295.706 103.395C295.706 103.395 313.246 90.7273 306.425 61.4934C300.579 36.4405 275.242 27.3871 259.65 26.4127C254.453 18.9418 245.033 4 217.748 4C198.649 4 162.204 29.3361 162.204 29.3361C162.204 29.3361 131.996 8.87232 94.966 19.5914Z" fill="#468635"/>
<path d="M9.21302 173.557C17.6584 142.049 45.3572 78.7179 79.3745 59.5445C122.851 35.0394 134.266 22.718 137.026 18.9389C125.495 16.1344 110.859 14.9908 94.966 19.5914C35.2925 36.8653 11.2571 124.098 6.5778 169.561L9.21302 173.557Z" fill="#5DA750"/>
<path d="M94.966 19.5914C33.9422 37.2562 8.04275 145.94 4.1449 190.441C7.39311 201.16 36.8879 204.74 120.302 204.74C203.716 204.74 265.763 202.784 286.551 190.441L295.706 103.395C295.706 103.395 313.246 90.7273 306.425 61.4934C300.579 36.4405 275.242 27.3871 259.65 26.4127C254.453 18.9418 245.034 4 217.749 4C198.649 4 162.204 29.3361 162.204 29.3361C162.204 29.3361 131.996 8.87232 94.966 19.5914Z" stroke="black" stroke-width="7"/>
<path d="M200.208 133.604C163.568 133.604 127.819 130.792 114.455 126.783C94.966 120.936 85.2214 129.316 85.2214 139.451C85.2214 156.016 107.634 164.787 159.281 166.736C210.927 168.684 253.804 160.889 279.14 154.068C304.476 147.246 311.297 110.217 289.859 110.217C265.497 110.217 246.008 133.604 200.208 133.604Z" fill="#DB3B27" stroke="black" stroke-width="7"/>
<path d="M301.552 118.012C298.629 125.158 288.884 138.476 256.727 145.297C220.996 152.877 152.459 154.067 106.66 141.399" stroke="black" stroke-width="7" stroke-linecap="round" stroke-linejoin="round"/>
<path d="M159.281 64.4168C131.996 66.7556 111.532 91.377 104.711 103.395C104.711 103.395 121.277 117.038 145.638 117.038C186.176 117.038 209.953 94.6252 209.953 94.6252C209.953 94.6252 224.57 103.654 255.753 100.472C293.952 96.5742 306.1 76.7601 307.399 67.3402C301.552 60.8438 283.817 47.851 259.65 47.851C235.484 47.851 216.449 67.9899 209.953 78.0593C204.431 72.5374 186.566 62.0781 159.281 64.4168Z" fill="white"/>
<path d="M104.711 103.395L101.667 101.668L100.214 104.227L102.486 106.097L104.711 103.395ZM159.281 64.4168L158.982 60.9296L159.281 64.4168ZM209.953 78.0593L207.478 80.5342L210.544 83.5998L212.894 79.9568L209.953 78.0593ZM307.399 67.3402L310.866 67.8185L311.089 66.2076L310.001 64.9989L307.399 67.3402ZM255.753 100.472L255.397 96.9901L255.753 100.472ZM209.953 94.6252L211.792 91.6475L209.507 90.2359L207.552 92.0784L209.953 94.6252ZM107.755 105.123C110.976 99.447 117.54 90.6128 126.585 82.9462C135.632 75.2776 146.905 68.9905 159.58 67.9041L158.982 60.9296C144.371 62.1819 131.77 69.3749 122.059 77.6063C112.345 85.8397 105.266 95.3255 101.667 101.668L107.755 105.123ZM159.58 67.9041C185.897 65.6483 202.728 75.7847 207.478 80.5342L212.428 75.5845C206.133 69.2901 187.234 58.508 158.982 60.9296L159.58 67.9041ZM212.894 79.9568C215.926 75.2565 222.02 68.0263 230.244 62.0026C238.463 55.9819 248.551 51.351 259.65 51.351V44.351C246.584 44.351 235.071 49.7894 226.107 56.3556C217.147 62.9187 210.476 70.7927 207.012 76.1619L212.894 79.9568ZM259.65 51.351C282.623 51.351 299.466 63.7579 304.798 69.6816L310.001 64.9989C303.639 57.9297 285.011 44.351 259.65 44.351V51.351ZM303.932 66.862C302.911 74.2634 292.454 93.2088 255.397 96.9901L256.108 103.954C295.449 99.9395 309.289 79.2567 310.866 67.8185L303.932 66.862ZM255.397 96.9901C240.202 98.5406 229.155 97.1061 221.996 95.3433C218.413 94.4611 215.792 93.494 214.104 92.7696C213.259 92.4074 212.647 92.1055 212.263 91.9049C212.071 91.8046 211.936 91.7296 211.858 91.685C211.818 91.6627 211.794 91.648 211.783 91.6415C211.777 91.6383 211.775 91.6371 211.777 91.6381C211.778 91.6386 211.779 91.6396 211.782 91.6412C211.783 91.6419 211.785 91.6429 211.786 91.6439C211.787 91.6444 211.789 91.6453 211.789 91.6456C211.791 91.6465 211.792 91.6475 209.953 94.6252C208.114 97.603 208.115 97.604 208.117 97.6051C208.118 97.6055 208.119 97.6066 208.121 97.6074C208.123 97.609 208.126 97.6107 208.129 97.6126C208.135 97.6163 208.142 97.6206 208.15 97.6254C208.166 97.6351 208.186 97.6468 208.209 97.6605C208.255 97.688 208.316 97.7236 208.392 97.7667C208.543 97.8528 208.752 97.9687 209.021 98.109C209.558 98.3898 210.331 98.7684 211.344 99.2029C213.371 100.072 216.354 101.163 220.322 102.14C228.267 104.096 240.12 105.585 256.108 103.954L255.397 96.9901ZM209.953 94.6252C207.552 92.0784 207.553 92.0775 207.554 92.0766C207.554 92.0765 207.555 92.0757 207.555 92.0754C207.556 92.0748 207.556 92.0744 207.556 92.0745C207.556 92.0745 207.555 92.0759 207.552 92.0786C207.546 92.084 207.535 92.0947 207.517 92.1104C207.483 92.142 207.426 92.1939 207.346 92.265C207.187 92.407 206.938 92.6252 206.6 92.9087C205.925 93.4758 204.898 94.3036 203.533 95.3058C200.802 97.3109 196.724 100.008 191.41 102.712C180.784 108.119 165.247 113.538 145.638 113.538V120.538C166.567 120.538 183.188 114.75 194.584 108.951C200.282 106.052 204.682 103.146 207.675 100.949C209.173 99.8496 210.32 98.9264 211.104 98.2679C211.496 97.9385 211.797 97.6752 212.006 97.4889C212.11 97.3958 212.191 97.3219 212.249 97.2686C212.278 97.242 212.302 97.2205 212.319 97.2044C212.328 97.1963 212.335 97.1896 212.341 97.1842C212.344 97.1815 212.346 97.1791 212.348 97.1771C212.349 97.1761 212.351 97.1749 212.351 97.1744C212.352 97.1732 212.354 97.1721 209.953 94.6252ZM145.638 113.538C134.11 113.538 124.395 110.308 117.539 107.055C114.117 105.431 111.429 103.81 109.611 102.608C108.702 102.007 108.014 101.512 107.562 101.175C107.336 101.007 107.169 100.878 107.064 100.796C107.011 100.754 106.974 100.725 106.953 100.707C106.942 100.699 106.935 100.693 106.932 100.691C106.931 100.69 106.93 100.689 106.931 100.69C106.931 100.69 106.932 100.691 106.933 100.691C106.933 100.691 106.934 100.692 106.934 100.692C106.935 100.693 106.936 100.694 104.711 103.395C102.486 106.097 102.487 106.098 102.488 106.099C102.488 106.099 102.489 106.1 102.49 106.101C102.492 106.102 102.494 106.104 102.496 106.106C102.501 106.11 102.507 106.114 102.513 106.12C102.526 106.13 102.544 106.144 102.565 106.162C102.608 106.196 102.667 106.243 102.741 106.302C102.891 106.419 103.104 106.583 103.379 106.788C103.928 107.197 104.724 107.768 105.749 108.446C107.798 109.802 110.774 111.592 114.538 113.379C122.056 116.946 132.805 120.538 145.638 120.538V113.538Z" fill="black"/>
<ellipse cx="164.153" cy="94.6252" rx="26.3105" ry="23.3871" fill="black"/>
<circle cx="170.974" cy="92.676" r="9.74464" fill="white"/>
<ellipse cx="151.041" cy="84.9897" rx="3.89786" ry="4.87232" transform="rotate(21.3179 151.041 84.9897)" fill="white"/>
<ellipse cx="261.599" cy="77.0847" rx="26.3105" ry="23.3871" fill="black"/>
<circle cx="268.421" cy="75.1359" r="9.74464" fill="white"/>
<ellipse cx="248.487" cy="67.4493" rx="3.89786" ry="4.87232" transform="rotate(21.3179 248.487 67.4493)" fill="white"/>
<path d="M85.2214 57.5954C90.7433 50.1245 102.957 38.1061 123.225 38.1061C126.448 38.1061 129.73 38.3771 132.97 38.8328M246.008 30.3104C246.008 30.3104 237.238 22.5147 216.774 22.5147C201.183 22.5147 176.821 41.0295 166.102 48.8252C166.102 48.8252 161.115 46.4608 153.726 43.9529" stroke="black" stroke-width="7" stroke-linecap="round" stroke-linejoin="round"/>
</svg>
