<svg width="305" height="79" viewBox="0 0 305 79" fill="none" xmlns="http://www.w3.org/2000/svg">
<mask id="path-1-outside-1" maskUnits="userSpaceOnUse" x="-0.333984" y="0.65332" width="157" height="64" fill="black">
<rect fill="white" x="-0.333984" y="0.65332" width="157" height="64"/>
<path d="M7.60547 24.1445L15.9111 22.7432V29.6133L15.7061 37.8848L25.5156 35.4922C26.9056 31.0944 27.6006 27.1068 27.6006 23.5293C27.6006 22.7773 27.555 22.071 27.4639 21.4102C23.613 20.2025 16.0137 19.3708 4.66602 18.915L5.96484 10.8486C15.6947 11.236 24.1257 12.1702 31.2578 13.6514C31.873 13.7881 32.8529 14.6882 34.1973 16.3516C35.5189 17.9922 36.2025 19.1429 36.248 19.8037C36.3164 20.4645 36.3506 21.1139 36.3506 21.752V23.666C36.3506 26.6283 35.5986 30.4564 34.0947 35.1504C33.2744 37.7025 32.4655 39.3431 31.668 40.0723C31.3034 40.4141 30.973 40.6647 30.6768 40.8242L27.3271 41.918C30.654 45.541 33.7301 49.5173 36.5557 53.8467L29.4463 58.666L20.9014 43.627L15.9111 43.9004L15.6377 56L8.2207 56.6152L7.60547 24.1445Z"/>
<path d="M43.4941 33.2363C43.4941 30.1829 43.8132 28.417 44.4512 27.9385C45.0892 27.46 45.807 26.9814 46.6045 26.5029C47.402 26.0016 48.2793 25.5117 49.2363 25.0332C50.1934 24.5547 51.1846 24.099 52.21 23.666C53.2581 23.2331 54.2835 22.8457 55.2861 22.5039C57.4281 21.7747 59.0231 21.4102 60.0713 21.4102C61.1423 21.4102 62.0081 21.4671 62.6689 21.5811C63.3298 21.6722 63.9336 21.8317 64.4805 22.0596C65.7337 22.5837 66.4401 23.347 66.5996 24.3496C67.3516 29.112 67.7275 34.7858 67.7275 41.3711V43.3877L51.3555 43.5928V48.0361C53.1328 48.4691 55.252 48.8678 57.7129 49.2324L63.5918 50.1895C65.0957 50.4173 66.6338 50.6794 68.2061 50.9756L66.1895 58.4609C59.9232 57.4811 53.2695 55.8975 46.2285 53.71C44.6107 53.1859 43.779 52.2402 43.7334 50.873L43.4941 33.2363ZM60.0371 36.0391C60.0371 33.8971 59.8206 31.6413 59.3877 29.2715C58.4762 29.2715 57.7471 29.3171 57.2002 29.4082C56.6533 29.4993 56.1064 29.6247 55.5596 29.7842C55.0127 29.9437 54.4544 30.126 53.8848 30.3311C52.5404 30.8096 51.6517 31.2197 51.2188 31.5615V37.7139L60.0371 36.7568V36.0391Z"/>
<path d="M76.2383 7.22559L84.7148 5.65332L84.9541 30.2969L83.8945 56L76.6826 56.6152L76.2383 7.22559Z"/>
<path d="M116.604 58.4609C107.216 57.5039 99.8564 56.0798 94.5244 54.1885C93.5446 53.8239 92.8952 51.7275 92.5762 47.8994C92.3027 44.3903 92.599 41.3483 93.4648 38.7734C93.8294 37.7025 94.2624 37.11 94.7637 36.9961C96.9056 36.4264 99.1615 36.0163 101.531 35.7656L108.641 34.9795L108.504 30.1602C106.02 29.6816 103.548 29.3057 101.087 29.0322C98.6488 28.736 96.222 28.3942 93.8066 28.0068L95.6182 20.5215L101.395 21.376C106.681 22.1507 110.885 23.0964 114.007 24.2129C115.511 24.7598 116.263 25.8649 116.263 27.5283L116.399 46.2588L109.119 46.9766L108.914 41.1318L106.966 41.5078C104.778 41.8724 102.693 42.3281 100.711 42.875C100.46 44.0827 100.335 45.0853 100.335 45.8828C100.335 47.0449 100.381 47.945 100.472 48.583C103.685 49.3122 108.641 50.0527 115.34 50.8047L118.143 51.1123L116.604 58.4609Z"/>
<path d="M122.415 55.3164C122.962 50.9414 124.352 46.5322 126.585 42.0889C127.177 40.904 127.747 39.9128 128.294 39.1152L131.336 37.5088C128.898 34.4554 127.166 32.2223 126.141 30.8096L123.509 27.0156C122.757 25.8763 122.21 24.9421 121.868 24.2129L128.636 19.2568L137.352 34.6719L138.104 34.2617C138.24 33.8516 138.445 33.2933 138.719 32.5869L141.761 24.5889L142.684 21.957C142.957 21.1595 143.174 20.4759 143.333 19.9062L151.058 22.5381C150.67 24.4521 149.918 26.5143 148.802 28.7246L146.375 33.4756C145.418 35.2985 144.552 36.8138 143.777 38.0215L141.146 39.3545C143.903 42.818 145.68 45.1081 146.478 46.2246L148.562 49.1299C149.793 50.8617 150.67 52.263 151.194 53.334L144.393 58.3242C138.924 48.7083 135.905 43.3649 135.335 42.2939L134.446 42.7041L133.831 44.3447C133.58 45.0283 133.318 45.7917 133.045 46.6348L132.19 49.2324C131.165 52.3997 130.55 54.8151 130.345 56.4785L122.415 55.3164Z"/>
</mask>
<path d="M7.60547 24.1445L15.9111 22.7432V29.6133L15.7061 37.8848L25.5156 35.4922C26.9056 31.0944 27.6006 27.1068 27.6006 23.5293C27.6006 22.7773 27.555 22.071 27.4639 21.4102C23.613 20.2025 16.0137 19.3708 4.66602 18.915L5.96484 10.8486C15.6947 11.236 24.1257 12.1702 31.2578 13.6514C31.873 13.7881 32.8529 14.6882 34.1973 16.3516C35.5189 17.9922 36.2025 19.1429 36.248 19.8037C36.3164 20.4645 36.3506 21.1139 36.3506 21.752V23.666C36.3506 26.6283 35.5986 30.4564 34.0947 35.1504C33.2744 37.7025 32.4655 39.3431 31.668 40.0723C31.3034 40.4141 30.973 40.6647 30.6768 40.8242L27.3271 41.918C30.654 45.541 33.7301 49.5173 36.5557 53.8467L29.4463 58.666L20.9014 43.627L15.9111 43.9004L15.6377 56L8.2207 56.6152L7.60547 24.1445Z" fill="white"/>
<path d="M43.4941 33.2363C43.4941 30.1829 43.8132 28.417 44.4512 27.9385C45.0892 27.46 45.807 26.9814 46.6045 26.5029C47.402 26.0016 48.2793 25.5117 49.2363 25.0332C50.1934 24.5547 51.1846 24.099 52.21 23.666C53.2581 23.2331 54.2835 22.8457 55.2861 22.5039C57.4281 21.7747 59.0231 21.4102 60.0713 21.4102C61.1423 21.4102 62.0081 21.4671 62.6689 21.5811C63.3298 21.6722 63.9336 21.8317 64.4805 22.0596C65.7337 22.5837 66.4401 23.347 66.5996 24.3496C67.3516 29.112 67.7275 34.7858 67.7275 41.3711V43.3877L51.3555 43.5928V48.0361C53.1328 48.4691 55.252 48.8678 57.7129 49.2324L63.5918 50.1895C65.0957 50.4173 66.6338 50.6794 68.2061 50.9756L66.1895 58.4609C59.9232 57.4811 53.2695 55.8975 46.2285 53.71C44.6107 53.1859 43.779 52.2402 43.7334 50.873L43.4941 33.2363ZM60.0371 36.0391C60.0371 33.8971 59.8206 31.6413 59.3877 29.2715C58.4762 29.2715 57.7471 29.3171 57.2002 29.4082C56.6533 29.4993 56.1064 29.6247 55.5596 29.7842C55.0127 29.9437 54.4544 30.126 53.8848 30.3311C52.5404 30.8096 51.6517 31.2197 51.2188 31.5615V37.7139L60.0371 36.7568V36.0391Z" fill="white"/>
<path d="M76.2383 7.22559L84.7148 5.65332L84.9541 30.2969L83.8945 56L76.6826 56.6152L76.2383 7.22559Z" fill="white"/>
<path d="M116.604 58.4609C107.216 57.5039 99.8564 56.0798 94.5244 54.1885C93.5446 53.8239 92.8952 51.7275 92.5762 47.8994C92.3027 44.3903 92.599 41.3483 93.4648 38.7734C93.8294 37.7025 94.2624 37.11 94.7637 36.9961C96.9056 36.4264 99.1615 36.0163 101.531 35.7656L108.641 34.9795L108.504 30.1602C106.02 29.6816 103.548 29.3057 101.087 29.0322C98.6488 28.736 96.222 28.3942 93.8066 28.0068L95.6182 20.5215L101.395 21.376C106.681 22.1507 110.885 23.0964 114.007 24.2129C115.511 24.7598 116.263 25.8649 116.263 27.5283L116.399 46.2588L109.119 46.9766L108.914 41.1318L106.966 41.5078C104.778 41.8724 102.693 42.3281 100.711 42.875C100.46 44.0827 100.335 45.0853 100.335 45.8828C100.335 47.0449 100.381 47.945 100.472 48.583C103.685 49.3122 108.641 50.0527 115.34 50.8047L118.143 51.1123L116.604 58.4609Z" fill="white"/>
<path d="M122.415 55.3164C122.962 50.9414 124.352 46.5322 126.585 42.0889C127.177 40.904 127.747 39.9128 128.294 39.1152L131.336 37.5088C128.898 34.4554 127.166 32.2223 126.141 30.8096L123.509 27.0156C122.757 25.8763 122.21 24.9421 121.868 24.2129L128.636 19.2568L137.352 34.6719L138.104 34.2617C138.24 33.8516 138.445 33.2933 138.719 32.5869L141.761 24.5889L142.684 21.957C142.957 21.1595 143.174 20.4759 143.333 19.9062L151.058 22.5381C150.67 24.4521 149.918 26.5143 148.802 28.7246L146.375 33.4756C145.418 35.2985 144.552 36.8138 143.777 38.0215L141.146 39.3545C143.903 42.818 145.68 45.1081 146.478 46.2246L148.562 49.1299C149.793 50.8617 150.67 52.263 151.194 53.334L144.393 58.3242C138.924 48.7083 135.905 43.3649 135.335 42.2939L134.446 42.7041L133.831 44.3447C133.58 45.0283 133.318 45.7917 133.045 46.6348L132.19 49.2324C131.165 52.3997 130.55 54.8151 130.345 56.4785L122.415 55.3164Z" fill="white"/>
<path d="M7.60547 24.1445L15.9111 22.7432V29.6133L15.7061 37.8848L25.5156 35.4922C26.9056 31.0944 27.6006 27.1068 27.6006 23.5293C27.6006 22.7773 27.555 22.071 27.4639 21.4102C23.613 20.2025 16.0137 19.3708 4.66602 18.915L5.96484 10.8486C15.6947 11.236 24.1257 12.1702 31.2578 13.6514C31.873 13.7881 32.8529 14.6882 34.1973 16.3516C35.5189 17.9922 36.2025 19.1429 36.248 19.8037C36.3164 20.4645 36.3506 21.1139 36.3506 21.752V23.666C36.3506 26.6283 35.5986 30.4564 34.0947 35.1504C33.2744 37.7025 32.4655 39.3431 31.668 40.0723C31.3034 40.4141 30.973 40.6647 30.6768 40.8242L27.3271 41.918C30.654 45.541 33.7301 49.5173 36.5557 53.8467L29.4463 58.666L20.9014 43.627L15.9111 43.9004L15.6377 56L8.2207 56.6152L7.60547 24.1445Z" stroke="black" stroke-width="8" mask="url(#path-1-outside-1)"/>
<path d="M43.4941 33.2363C43.4941 30.1829 43.8132 28.417 44.4512 27.9385C45.0892 27.46 45.807 26.9814 46.6045 26.5029C47.402 26.0016 48.2793 25.5117 49.2363 25.0332C50.1934 24.5547 51.1846 24.099 52.21 23.666C53.2581 23.2331 54.2835 22.8457 55.2861 22.5039C57.4281 21.7747 59.0231 21.4102 60.0713 21.4102C61.1423 21.4102 62.0081 21.4671 62.6689 21.5811C63.3298 21.6722 63.9336 21.8317 64.4805 22.0596C65.7337 22.5837 66.4401 23.347 66.5996 24.3496C67.3516 29.112 67.7275 34.7858 67.7275 41.3711V43.3877L51.3555 43.5928V48.0361C53.1328 48.4691 55.252 48.8678 57.7129 49.2324L63.5918 50.1895C65.0957 50.4173 66.6338 50.6794 68.2061 50.9756L66.1895 58.4609C59.9232 57.4811 53.2695 55.8975 46.2285 53.71C44.6107 53.1859 43.779 52.2402 43.7334 50.873L43.4941 33.2363ZM60.0371 36.0391C60.0371 33.8971 59.8206 31.6413 59.3877 29.2715C58.4762 29.2715 57.7471 29.3171 57.2002 29.4082C56.6533 29.4993 56.1064 29.6247 55.5596 29.7842C55.0127 29.9437 54.4544 30.126 53.8848 30.3311C52.5404 30.8096 51.6517 31.2197 51.2188 31.5615V37.7139L60.0371 36.7568V36.0391Z" stroke="black" stroke-width="8" mask="url(#path-1-outside-1)"/>
<path d="M76.2383 7.22559L84.7148 5.65332L84.9541 30.2969L83.8945 56L76.6826 56.6152L76.2383 7.22559Z" stroke="black" stroke-width="8" mask="url(#path-1-outside-1)"/>
<path d="M116.604 58.4609C107.216 57.5039 99.8564 56.0798 94.5244 54.1885C93.5446 53.8239 92.8952 51.7275 92.5762 47.8994C92.3027 44.3903 92.599 41.3483 93.4648 38.7734C93.8294 37.7025 94.2624 37.11 94.7637 36.9961C96.9056 36.4264 99.1615 36.0163 101.531 35.7656L108.641 34.9795L108.504 30.1602C106.02 29.6816 103.548 29.3057 101.087 29.0322C98.6488 28.736 96.222 28.3942 93.8066 28.0068L95.6182 20.5215L101.395 21.376C106.681 22.1507 110.885 23.0964 114.007 24.2129C115.511 24.7598 116.263 25.8649 116.263 27.5283L116.399 46.2588L109.119 46.9766L108.914 41.1318L106.966 41.5078C104.778 41.8724 102.693 42.3281 100.711 42.875C100.46 44.0827 100.335 45.0853 100.335 45.8828C100.335 47.0449 100.381 47.945 100.472 48.583C103.685 49.3122 108.641 50.0527 115.34 50.8047L118.143 51.1123L116.604 58.4609Z" stroke="black" stroke-width="8" mask="url(#path-1-outside-1)"/>
<path d="M122.415 55.3164C122.962 50.9414 124.352 46.5322 126.585 42.0889C127.177 40.904 127.747 39.9128 128.294 39.1152L131.336 37.5088C128.898 34.4554 127.166 32.2223 126.141 30.8096L123.509 27.0156C122.757 25.8763 122.21 24.9421 121.868 24.2129L128.636 19.2568L137.352 34.6719L138.104 34.2617C138.24 33.8516 138.445 33.2933 138.719 32.5869L141.761 24.5889L142.684 21.957C142.957 21.1595 143.174 20.4759 143.333 19.9062L151.058 22.5381C150.67 24.4521 149.918 26.5143 148.802 28.7246L146.375 33.4756C145.418 35.2985 144.552 36.8138 143.777 38.0215L141.146 39.3545C143.903 42.818 145.68 45.1081 146.478 46.2246L148.562 49.1299C149.793 50.8617 150.67 52.263 151.194 53.334L144.393 58.3242C138.924 48.7083 135.905 43.3649 135.335 42.2939L134.446 42.7041L133.831 44.3447C133.58 45.0283 133.318 45.7917 133.045 46.6348L132.19 49.2324C131.165 52.3997 130.55 54.8151 130.345 56.4785L122.415 55.3164Z" stroke="black" stroke-width="8" mask="url(#path-1-outside-1)"/>
<mask id="path-2-outside-2" maskUnits="userSpaceOnUse" x="165.506" y="6.12207" width="139" height="72" fill="black">
<rect fill="white" x="165.506" y="6.12207" width="139" height="72"/>
<path d="M173.855 24.418L182.605 23.0166V29.8867L182.332 39.4229C183.175 39.2861 183.973 39.138 184.725 38.9785L186.946 38.4316C187.675 38.2493 188.393 38.0443 189.1 37.8164L191.355 37.0303C192.426 33.6351 192.962 29.488 192.962 24.5889C192.962 22.766 192.871 21.6152 192.688 21.1367C189.681 20.1797 184.189 19.5872 176.214 19.3594C174.163 19.3138 172.26 19.2568 170.506 19.1885L171.805 11.1221C182.56 11.5322 190.433 12.3298 195.423 13.5146C196.22 13.7197 197.143 14.3464 198.191 15.3945C200.174 17.377 201.245 18.972 201.404 20.1797C201.587 21.3646 201.678 23.0508 201.678 25.2383C201.678 27.403 201.393 30.0007 200.823 33.0312C200.254 36.0618 199.331 39.0697 198.055 42.0547C197.553 43.2396 196.414 43.9688 194.637 44.2422L182.537 46.3955L182.127 55.9316L174.471 56.6836L173.855 24.418Z"/>
<path d="M208.855 33.2363C208.855 30.1829 209.174 28.417 209.812 27.9385C210.451 27.46 211.168 26.9814 211.966 26.5029C212.763 26.0016 213.641 25.5117 214.598 25.0332C215.555 24.5547 216.546 24.099 217.571 23.666C218.619 23.2331 219.645 22.8457 220.647 22.5039C222.789 21.7747 224.384 21.4102 225.433 21.4102C226.504 21.4102 227.369 21.4671 228.03 21.5811C228.691 21.6722 229.295 21.8317 229.842 22.0596C231.095 22.5837 231.801 23.347 231.961 24.3496C232.713 29.112 233.089 34.7858 233.089 41.3711V43.3877L216.717 43.5928V48.0361C218.494 48.4691 220.613 48.8678 223.074 49.2324L228.953 50.1895C230.457 50.4173 231.995 50.6794 233.567 50.9756L231.551 58.4609C225.285 57.4811 218.631 55.8975 211.59 53.71C209.972 53.1859 209.14 52.2402 209.095 50.873L208.855 33.2363ZM225.398 36.0391C225.398 33.8971 225.182 31.6413 224.749 29.2715C223.838 29.2715 223.108 29.3171 222.562 29.4082C222.015 29.4993 221.468 29.6247 220.921 29.7842C220.374 29.9437 219.816 30.126 219.246 30.3311C217.902 30.8096 217.013 31.2197 216.58 31.5615V37.7139L225.398 36.7568V36.0391Z"/>
<path d="M249.837 73.3633L242.625 73.8418L242.352 34.6377L250.315 33.0996L250.657 49.916L256.878 48.7197C258.154 43.5016 258.792 39.0697 258.792 35.4238C258.792 33.3275 258.678 31.6413 258.45 30.3652C257.288 29.7272 252.628 29.4082 244.471 29.4082H242.42C241.759 29.4082 241.132 29.431 240.54 29.4766L242.044 21.5469C243.525 21.4329 244.881 21.376 246.111 21.376C247.365 21.376 248.8 21.4215 250.418 21.5127C252.059 21.6038 253.699 21.7292 255.34 21.8887C261.606 22.5495 265.161 23.4609 266.004 24.623C266.847 25.8079 267.269 28.3714 267.269 32.3135C267.269 39.1722 266.152 46.0423 263.919 52.9238C263.737 53.4935 263.52 53.9948 263.27 54.4277C263.042 54.8379 262.666 55.0771 262.142 55.1455L250.452 56.6836L249.837 73.3633Z"/>
<path d="M274.48 33.2363C274.48 30.1829 274.799 28.417 275.438 27.9385C276.076 27.46 276.793 26.9814 277.591 26.5029C278.388 26.0016 279.266 25.5117 280.223 25.0332C281.18 24.5547 282.171 24.099 283.196 23.666C284.244 23.2331 285.27 22.8457 286.272 22.5039C288.414 21.7747 290.009 21.4102 291.058 21.4102C292.129 21.4102 292.994 21.4671 293.655 21.5811C294.316 21.6722 294.92 21.8317 295.467 22.0596C296.72 22.5837 297.426 23.347 297.586 24.3496C298.338 29.112 298.714 34.7858 298.714 41.3711V43.3877L282.342 43.5928V48.0361C284.119 48.4691 286.238 48.8678 288.699 49.2324L294.578 50.1895C296.082 50.4173 297.62 50.6794 299.192 50.9756L297.176 58.4609C290.91 57.4811 284.256 55.8975 277.215 53.71C275.597 53.1859 274.765 52.2402 274.72 50.873L274.48 33.2363ZM291.023 36.0391C291.023 33.8971 290.807 31.6413 290.374 29.2715C289.463 29.2715 288.733 29.3171 288.187 29.4082C287.64 29.4993 287.093 29.6247 286.546 29.7842C285.999 29.9437 285.441 30.126 284.871 30.3311C283.527 30.8096 282.638 31.2197 282.205 31.5615V37.7139L291.023 36.7568V36.0391Z"/>
</mask>
<path d="M173.855 24.418L182.605 23.0166V29.8867L182.332 39.4229C183.175 39.2861 183.973 39.138 184.725 38.9785L186.946 38.4316C187.675 38.2493 188.393 38.0443 189.1 37.8164L191.355 37.0303C192.426 33.6351 192.962 29.488 192.962 24.5889C192.962 22.766 192.871 21.6152 192.688 21.1367C189.681 20.1797 184.189 19.5872 176.214 19.3594C174.163 19.3138 172.26 19.2568 170.506 19.1885L171.805 11.1221C182.56 11.5322 190.433 12.3298 195.423 13.5146C196.22 13.7197 197.143 14.3464 198.191 15.3945C200.174 17.377 201.245 18.972 201.404 20.1797C201.587 21.3646 201.678 23.0508 201.678 25.2383C201.678 27.403 201.393 30.0007 200.823 33.0312C200.254 36.0618 199.331 39.0697 198.055 42.0547C197.553 43.2396 196.414 43.9688 194.637 44.2422L182.537 46.3955L182.127 55.9316L174.471 56.6836L173.855 24.418Z" fill="#6DBA60"/>
<path d="M208.855 33.2363C208.855 30.1829 209.174 28.417 209.812 27.9385C210.451 27.46 211.168 26.9814 211.966 26.5029C212.763 26.0016 213.641 25.5117 214.598 25.0332C215.555 24.5547 216.546 24.099 217.571 23.666C218.619 23.2331 219.645 22.8457 220.647 22.5039C222.789 21.7747 224.384 21.4102 225.433 21.4102C226.504 21.4102 227.369 21.4671 228.03 21.5811C228.691 21.6722 229.295 21.8317 229.842 22.0596C231.095 22.5837 231.801 23.347 231.961 24.3496C232.713 29.112 233.089 34.7858 233.089 41.3711V43.3877L216.717 43.5928V48.0361C218.494 48.4691 220.613 48.8678 223.074 49.2324L228.953 50.1895C230.457 50.4173 231.995 50.6794 233.567 50.9756L231.551 58.4609C225.285 57.4811 218.631 55.8975 211.59 53.71C209.972 53.1859 209.14 52.2402 209.095 50.873L208.855 33.2363ZM225.398 36.0391C225.398 33.8971 225.182 31.6413 224.749 29.2715C223.838 29.2715 223.108 29.3171 222.562 29.4082C222.015 29.4993 221.468 29.6247 220.921 29.7842C220.374 29.9437 219.816 30.126 219.246 30.3311C217.902 30.8096 217.013 31.2197 216.58 31.5615V37.7139L225.398 36.7568V36.0391Z" fill="#6DBA60"/>
<path d="M249.837 73.3633L242.625 73.8418L242.352 34.6377L250.315 33.0996L250.657 49.916L256.878 48.7197C258.154 43.5016 258.792 39.0697 258.792 35.4238C258.792 33.3275 258.678 31.6413 258.45 30.3652C257.288 29.7272 252.628 29.4082 244.471 29.4082H242.42C241.759 29.4082 241.132 29.431 240.54 29.4766L242.044 21.5469C243.525 21.4329 244.881 21.376 246.111 21.376C247.365 21.376 248.8 21.4215 250.418 21.5127C252.059 21.6038 253.699 21.7292 255.34 21.8887C261.606 22.5495 265.161 23.4609 266.004 24.623C266.847 25.8079 267.269 28.3714 267.269 32.3135C267.269 39.1722 266.152 46.0423 263.919 52.9238C263.737 53.4935 263.52 53.9948 263.27 54.4277C263.042 54.8379 262.666 55.0771 262.142 55.1455L250.452 56.6836L249.837 73.3633Z" fill="#6DBA60"/>
<path d="M274.48 33.2363C274.48 30.1829 274.799 28.417 275.438 27.9385C276.076 27.46 276.793 26.9814 277.591 26.5029C278.388 26.0016 279.266 25.5117 280.223 25.0332C281.18 24.5547 282.171 24.099 283.196 23.666C284.244 23.2331 285.27 22.8457 286.272 22.5039C288.414 21.7747 290.009 21.4102 291.058 21.4102C292.129 21.4102 292.994 21.4671 293.655 21.5811C294.316 21.6722 294.92 21.8317 295.467 22.0596C296.72 22.5837 297.426 23.347 297.586 24.3496C298.338 29.112 298.714 34.7858 298.714 41.3711V43.3877L282.342 43.5928V48.0361C284.119 48.4691 286.238 48.8678 288.699 49.2324L294.578 50.1895C296.082 50.4173 297.62 50.6794 299.192 50.9756L297.176 58.4609C290.91 57.4811 284.256 55.8975 277.215 53.71C275.597 53.1859 274.765 52.2402 274.72 50.873L274.48 33.2363ZM291.023 36.0391C291.023 33.8971 290.807 31.6413 290.374 29.2715C289.463 29.2715 288.733 29.3171 288.187 29.4082C287.64 29.4993 287.093 29.6247 286.546 29.7842C285.999 29.9437 285.441 30.126 284.871 30.3311C283.527 30.8096 282.638 31.2197 282.205 31.5615V37.7139L291.023 36.7568V36.0391Z" fill="#6DBA60"/>
<path d="M173.855 24.418L182.605 23.0166V29.8867L182.332 39.4229C183.175 39.2861 183.973 39.138 184.725 38.9785L186.946 38.4316C187.675 38.2493 188.393 38.0443 189.1 37.8164L191.355 37.0303C192.426 33.6351 192.962 29.488 192.962 24.5889C192.962 22.766 192.871 21.6152 192.688 21.1367C189.681 20.1797 184.189 19.5872 176.214 19.3594C174.163 19.3138 172.26 19.2568 170.506 19.1885L171.805 11.1221C182.56 11.5322 190.433 12.3298 195.423 13.5146C196.22 13.7197 197.143 14.3464 198.191 15.3945C200.174 17.377 201.245 18.972 201.404 20.1797C201.587 21.3646 201.678 23.0508 201.678 25.2383C201.678 27.403 201.393 30.0007 200.823 33.0312C200.254 36.0618 199.331 39.0697 198.055 42.0547C197.553 43.2396 196.414 43.9688 194.637 44.2422L182.537 46.3955L182.127 55.9316L174.471 56.6836L173.855 24.418Z" stroke="black" stroke-width="8" mask="url(#path-2-outside-2)"/>
<path d="M208.855 33.2363C208.855 30.1829 209.174 28.417 209.812 27.9385C210.451 27.46 211.168 26.9814 211.966 26.5029C212.763 26.0016 213.641 25.5117 214.598 25.0332C215.555 24.5547 216.546 24.099 217.571 23.666C218.619 23.2331 219.645 22.8457 220.647 22.5039C222.789 21.7747 224.384 21.4102 225.433 21.4102C226.504 21.4102 227.369 21.4671 228.03 21.5811C228.691 21.6722 229.295 21.8317 229.842 22.0596C231.095 22.5837 231.801 23.347 231.961 24.3496C232.713 29.112 233.089 34.7858 233.089 41.3711V43.3877L216.717 43.5928V48.0361C218.494 48.4691 220.613 48.8678 223.074 49.2324L228.953 50.1895C230.457 50.4173 231.995 50.6794 233.567 50.9756L231.551 58.4609C225.285 57.4811 218.631 55.8975 211.59 53.71C209.972 53.1859 209.14 52.2402 209.095 50.873L208.855 33.2363ZM225.398 36.0391C225.398 33.8971 225.182 31.6413 224.749 29.2715C223.838 29.2715 223.108 29.3171 222.562 29.4082C222.015 29.4993 221.468 29.6247 220.921 29.7842C220.374 29.9437 219.816 30.126 219.246 30.3311C217.902 30.8096 217.013 31.2197 216.58 31.5615V37.7139L225.398 36.7568V36.0391Z" stroke="black" stroke-width="8" mask="url(#path-2-outside-2)"/>
<path d="M249.837 73.3633L242.625 73.8418L242.352 34.6377L250.315 33.0996L250.657 49.916L256.878 48.7197C258.154 43.5016 258.792 39.0697 258.792 35.4238C258.792 33.3275 258.678 31.6413 258.45 30.3652C257.288 29.7272 252.628 29.4082 244.471 29.4082H242.42C241.759 29.4082 241.132 29.431 240.54 29.4766L242.044 21.5469C243.525 21.4329 244.881 21.376 246.111 21.376C247.365 21.376 248.8 21.4215 250.418 21.5127C252.059 21.6038 253.699 21.7292 255.34 21.8887C261.606 22.5495 265.161 23.4609 266.004 24.623C266.847 25.8079 267.269 28.3714 267.269 32.3135C267.269 39.1722 266.152 46.0423 263.919 52.9238C263.737 53.4935 263.52 53.9948 263.27 54.4277C263.042 54.8379 262.666 55.0771 262.142 55.1455L250.452 56.6836L249.837 73.3633Z" stroke="black" stroke-width="8" mask="url(#path-2-outside-2)"/>
<path d="M274.48 33.2363C274.48 30.1829 274.799 28.417 275.438 27.9385C276.076 27.46 276.793 26.9814 277.591 26.5029C278.388 26.0016 279.266 25.5117 280.223 25.0332C281.18 24.5547 282.171 24.099 283.196 23.666C284.244 23.2331 285.27 22.8457 286.272 22.5039C288.414 21.7747 290.009 21.4102 291.058 21.4102C292.129 21.4102 292.994 21.4671 293.655 21.5811C294.316 21.6722 294.92 21.8317 295.467 22.0596C296.72 22.5837 297.426 23.347 297.586 24.3496C298.338 29.112 298.714 34.7858 298.714 41.3711V43.3877L282.342 43.5928V48.0361C284.119 48.4691 286.238 48.8678 288.699 49.2324L294.578 50.1895C296.082 50.4173 297.62 50.6794 299.192 50.9756L297.176 58.4609C290.91 57.4811 284.256 55.8975 277.215 53.71C275.597 53.1859 274.765 52.2402 274.72 50.873L274.48 33.2363ZM291.023 36.0391C291.023 33.8971 290.807 31.6413 290.374 29.2715C289.463 29.2715 288.733 29.3171 288.187 29.4082C287.64 29.4993 287.093 29.6247 286.546 29.7842C285.999 29.9437 285.441 30.126 284.871 30.3311C283.527 30.8096 282.638 31.2197 282.205 31.5615V37.7139L291.023 36.7568V36.0391Z" stroke="black" stroke-width="8" mask="url(#path-2-outside-2)"/>
</svg>
